# xmcd
#
# Track frame offsets:
#	150
#	18636
#	33113
#	52554
#	71714
#	90153
#	104500
#	124446
#	144945
#	158691
#	165498
#	183054
#	201392
#
# Disc length: 2858 seconds
#
# Revision: 0
# Processed by: cddbd v1.5PL3 Copyright (c) Steve Scherf et al.
# Submitted via: audiograbber 1.83.01
#
DISCID=9f0b280d
DTITLE=Scott Ellison - Bad Case of the Blues
DYEAR=2003
DGENRE=Blues
TTITLE0=Pain Full Love
TTITLE1=Coming Down From Loving You
TTITLE2=It's the Other Woman
TTITLE3=Fantasy
TTITLE4=Shoulda Been Out and Gone
TTITLE5=Love Pains
TTITLE6=You're Killing Me
TTITLE7=Whisper In The Dark
TTITLE8=Whiskey and Run
TTITLE9=Morning Rain
TTITLE10=Bad Case of the Blues
TTITLE11=Odd Man Out
TTITLE12=Voodoo Curse
EXTD=
EXTT0=
EXTT1=
EXTT2=
EXTT3=
EXTT4=
EXTT5=
EXTT6=
EXTT7=
EXTT8=
EXTT9=
EXTT10=
EXTT11=
EXTT12=
PLAYORDER=
